<mxfile host="app.diagrams.net" modified="2023-02-08T15:46:21.226Z" agent="5.0 (Macintosh; Intel Mac OS X 10_15_7) AppleWebKit/537.36 (KHTML, like Gecko) Chrome/109.0.0.0 Safari/537.36" etag="0JX1B8g7zF-U3-X3AYg6" version="20.8.17" type="github">
  <diagram name="Page-1" id="kNW_E0Tut5df2s4aOPyQ">
    <mxGraphModel dx="1434" dy="771" grid="1" gridSize="10" guides="1" tooltips="1" connect="1" arrows="1" fold="1" page="1" pageScale="1" pageWidth="827" pageHeight="1169" math="0" shadow="0">
      <root>
        <mxCell id="0" />
        <mxCell id="1" parent="0" />
        <mxCell id="bU-89BSq98NwyGxFR7DF-1" value="Passenger" style="rounded=0;whiteSpace=wrap;html=1;strokeColor=#9DF278;strokeWidth=5;" parent="1" vertex="1">
          <mxGeometry x="40" y="140" width="120" height="60" as="geometry" />
        </mxCell>
        <mxCell id="bU-89BSq98NwyGxFR7DF-2" value="Check-In System" style="rounded=0;whiteSpace=wrap;html=1;strokeColor=#9DF278;strokeWidth=5;" parent="1" vertex="1">
          <mxGeometry x="360" y="140" width="120" height="60" as="geometry" />
        </mxCell>
        <mxCell id="bU-89BSq98NwyGxFR7DF-3" value="Bag" style="rounded=0;whiteSpace=wrap;html=1;strokeColor=#9df278;strokeWidth=5;" parent="1" vertex="1">
          <mxGeometry x="680" y="140" width="120" height="60" as="geometry" />
        </mxCell>
        <mxCell id="bU-89BSq98NwyGxFR7DF-4" value="" style="endArrow=none;dashed=1;html=1;rounded=0;entryX=0.5;entryY=1;entryDx=0;entryDy=0;" parent="1" target="bU-89BSq98NwyGxFR7DF-1" edge="1">
          <mxGeometry width="50" height="50" relative="1" as="geometry">
            <mxPoint x="100" y="680" as="sourcePoint" />
            <mxPoint x="440" y="370" as="targetPoint" />
          </mxGeometry>
        </mxCell>
        <mxCell id="bU-89BSq98NwyGxFR7DF-5" value="" style="endArrow=none;dashed=1;html=1;rounded=0;entryX=0.5;entryY=1;entryDx=0;entryDy=0;" parent="1" edge="1">
          <mxGeometry width="50" height="50" relative="1" as="geometry">
            <mxPoint x="419.5" y="680" as="sourcePoint" />
            <mxPoint x="419.5" y="200" as="targetPoint" />
          </mxGeometry>
        </mxCell>
        <mxCell id="bU-89BSq98NwyGxFR7DF-6" value="" style="endArrow=none;dashed=1;html=1;rounded=0;entryX=0.5;entryY=1;entryDx=0;entryDy=0;" parent="1" edge="1">
          <mxGeometry width="50" height="50" relative="1" as="geometry">
            <mxPoint x="739.5" y="680" as="sourcePoint" />
            <mxPoint x="739.5" y="200" as="targetPoint" />
          </mxGeometry>
        </mxCell>
        <mxCell id="bU-89BSq98NwyGxFR7DF-7" value="dropBag()" style="endArrow=classic;html=1;rounded=0;" parent="1" edge="1">
          <mxGeometry width="50" height="50" relative="1" as="geometry">
            <mxPoint x="100" y="280" as="sourcePoint" />
            <mxPoint x="420" y="280" as="targetPoint" />
          </mxGeometry>
        </mxCell>
        <mxCell id="bU-89BSq98NwyGxFR7DF-8" value="newBag(weight)" style="endArrow=classic;html=1;rounded=0;" parent="1" edge="1">
          <mxGeometry width="50" height="50" relative="1" as="geometry">
            <mxPoint x="420" y="320" as="sourcePoint" />
            <mxPoint x="740" y="320" as="targetPoint" />
          </mxGeometry>
        </mxCell>
        <mxCell id="bU-89BSq98NwyGxFR7DF-9" value="isOverLimit()" style="endArrow=classic;html=1;rounded=0;" parent="1" edge="1">
          <mxGeometry width="50" height="50" relative="1" as="geometry">
            <mxPoint x="420" y="360" as="sourcePoint" />
            <mxPoint x="740" y="360" as="targetPoint" />
          </mxGeometry>
        </mxCell>
        <mxCell id="bU-89BSq98NwyGxFR7DF-10" value="False" style="endArrow=classic;html=1;rounded=0;dashed=1;dashPattern=8 8;" parent="1" edge="1">
          <mxGeometry width="50" height="50" relative="1" as="geometry">
            <mxPoint x="740" y="440" as="sourcePoint" />
            <mxPoint x="420" y="440" as="targetPoint" />
          </mxGeometry>
        </mxCell>
        <mxCell id="bU-89BSq98NwyGxFR7DF-11" value="Bag drop Successful" style="endArrow=classic;html=1;rounded=0;dashed=1;dashPattern=8 8;" parent="1" edge="1">
          <mxGeometry width="50" height="50" relative="1" as="geometry">
            <mxPoint x="420" y="480" as="sourcePoint" />
            <mxPoint x="100" y="480" as="targetPoint" />
          </mxGeometry>
        </mxCell>
        <mxCell id="bU-89BSq98NwyGxFR7DF-12" value="True" style="endArrow=classic;html=1;rounded=0;dashed=1;dashPattern=8 8;" parent="1" edge="1">
          <mxGeometry width="50" height="50" relative="1" as="geometry">
            <mxPoint x="740" y="540" as="sourcePoint" />
            <mxPoint x="420" y="540" as="targetPoint" />
          </mxGeometry>
        </mxCell>
        <mxCell id="bU-89BSq98NwyGxFR7DF-13" value="Bag drop Fail" style="endArrow=classic;html=1;rounded=0;dashed=1;dashPattern=8 8;" parent="1" edge="1">
          <mxGeometry width="50" height="50" relative="1" as="geometry">
            <mxPoint x="420" y="580" as="sourcePoint" />
            <mxPoint x="100" y="580" as="targetPoint" />
          </mxGeometry>
        </mxCell>
        <mxCell id="bU-89BSq98NwyGxFR7DF-14" value="" style="rounded=0;whiteSpace=wrap;html=1;fillColor=none;strokeColor=#B85450;" parent="1" vertex="1">
          <mxGeometry x="90" y="420" width="660" height="80" as="geometry" />
        </mxCell>
        <mxCell id="bU-89BSq98NwyGxFR7DF-16" value="" style="rounded=0;whiteSpace=wrap;html=1;fillColor=none;strokeColor=#b85450;" parent="1" vertex="1">
          <mxGeometry x="90" y="520" width="660" height="80" as="geometry" />
        </mxCell>
        <mxCell id="bU-89BSq98NwyGxFR7DF-17" value="" style="endArrow=classic;html=1;rounded=0;entryX=1;entryY=0.5;entryDx=0;entryDy=0;exitX=0.5;exitY=0;exitDx=0;exitDy=0;fillColor=#f8cecc;strokeColor=#b85450;" parent="1" source="bU-89BSq98NwyGxFR7DF-19" target="bU-89BSq98NwyGxFR7DF-14" edge="1">
          <mxGeometry width="50" height="50" relative="1" as="geometry">
            <mxPoint x="780" y="500" as="sourcePoint" />
            <mxPoint x="440" y="370" as="targetPoint" />
          </mxGeometry>
        </mxCell>
        <mxCell id="bU-89BSq98NwyGxFR7DF-18" value="" style="endArrow=classic;html=1;rounded=0;entryX=1;entryY=0.5;entryDx=0;entryDy=0;exitX=0.5;exitY=1;exitDx=0;exitDy=0;fillColor=#f8cecc;strokeColor=#b85450;" parent="1" source="bU-89BSq98NwyGxFR7DF-19" target="bU-89BSq98NwyGxFR7DF-16" edge="1">
          <mxGeometry width="50" height="50" relative="1" as="geometry">
            <mxPoint x="780" y="540" as="sourcePoint" />
            <mxPoint x="760" y="470" as="targetPoint" />
          </mxGeometry>
        </mxCell>
        <mxCell id="bU-89BSq98NwyGxFR7DF-19" value="&lt;font color=&quot;#ec6f6f&quot;&gt;Alternate&lt;br&gt;Flows&lt;/font&gt;" style="rounded=1;whiteSpace=wrap;html=1;fillColor=none;strokeColor=none;" parent="1" vertex="1">
          <mxGeometry x="760" y="500" width="67" height="30" as="geometry" />
        </mxCell>
        <mxCell id="bU-89BSq98NwyGxFR7DF-20" value="" style="endArrow=classic;html=1;rounded=0;entryX=0.25;entryY=1;entryDx=0;entryDy=0;fillColor=#f8cecc;strokeColor=#b85450;exitX=0.5;exitY=0;exitDx=0;exitDy=0;" parent="1" source="bU-89BSq98NwyGxFR7DF-21" target="bU-89BSq98NwyGxFR7DF-3" edge="1">
          <mxGeometry width="50" height="50" relative="1" as="geometry">
            <mxPoint x="660" y="220" as="sourcePoint" />
            <mxPoint x="760" y="260" as="targetPoint" />
          </mxGeometry>
        </mxCell>
        <mxCell id="bU-89BSq98NwyGxFR7DF-21" value="&lt;font color=&quot;#ec6f6f&quot;&gt;Class&lt;/font&gt;" style="rounded=1;whiteSpace=wrap;html=1;fillColor=none;strokeColor=none;" parent="1" vertex="1">
          <mxGeometry x="630" y="220" width="67" height="30" as="geometry" />
        </mxCell>
        <mxCell id="bU-89BSq98NwyGxFR7DF-22" value="&lt;font color=&quot;#ec6f6f&quot;&gt;Message&lt;/font&gt;" style="rounded=1;whiteSpace=wrap;html=1;fillColor=none;strokeColor=none;" parent="1" vertex="1">
          <mxGeometry x="160" y="300" width="67" height="30" as="geometry" />
        </mxCell>
        <mxCell id="bU-89BSq98NwyGxFR7DF-23" value="" style="endArrow=classic;html=1;rounded=0;fillColor=#f8cecc;strokeColor=#b85450;exitX=0.5;exitY=0;exitDx=0;exitDy=0;" parent="1" source="bU-89BSq98NwyGxFR7DF-22" edge="1">
          <mxGeometry width="50" height="50" relative="1" as="geometry">
            <mxPoint x="673.5" y="230" as="sourcePoint" />
            <mxPoint x="240" y="290" as="targetPoint" />
          </mxGeometry>
        </mxCell>
        <mxCell id="bU-89BSq98NwyGxFR7DF-24" value="&lt;font color=&quot;#ec6f6f&quot;&gt;Response&lt;/font&gt;" style="rounded=1;whiteSpace=wrap;html=1;fillColor=none;strokeColor=none;" parent="1" vertex="1">
          <mxGeometry x="613" y="460" width="67" height="30" as="geometry" />
        </mxCell>
        <mxCell id="bU-89BSq98NwyGxFR7DF-25" value="" style="endArrow=classic;html=1;rounded=0;fillColor=#f8cecc;strokeColor=#b85450;exitX=0.5;exitY=0;exitDx=0;exitDy=0;entryX=0.773;entryY=0.375;entryDx=0;entryDy=0;entryPerimeter=0;" parent="1" source="bU-89BSq98NwyGxFR7DF-24" target="bU-89BSq98NwyGxFR7DF-14" edge="1">
          <mxGeometry width="50" height="50" relative="1" as="geometry">
            <mxPoint x="203.5" y="310" as="sourcePoint" />
            <mxPoint x="250" y="300" as="targetPoint" />
          </mxGeometry>
        </mxCell>
      </root>
    </mxGraphModel>
  </diagram>
</mxfile>
